<svg width="14" height="10" viewBox="0 0 14 10" fill="none" xmlns="http://www.w3.org/2000/svg">
<path fill-rule="evenodd" clip-rule="evenodd" d="M0.333374 0.999919C0.333374 0.631729 0.631851 0.333252 1.00004 0.333252H13C13.3682 0.333252 13.6667 0.631729 13.6667 0.999919C13.6667 1.36811 13.3682 1.66659 13 1.66659H1.00004C0.631851 1.66659 0.333374 1.36811 0.333374 0.999919ZM2.33337 3.66659C2.33337 3.2984 2.63185 2.99992 3.00004 2.99992H11C11.3682 2.99992 11.6667 3.2984 11.6667 3.66659C11.6667 4.03478 11.3682 4.33325 11 4.33325H3.00004C2.63185 4.33325 2.33337 4.03478 2.33337 3.66659ZM0.333374 6.33325C0.333374 5.96506 0.631851 5.66659 1.00004 5.66659H13C13.3682 5.66659 13.6667 5.96506 13.6667 6.33325C13.6667 6.70144 13.3682 6.99992 13 6.99992H1.00004C0.631851 6.99992 0.333374 6.70144 0.333374 6.33325ZM2.33337 8.99992C2.33337 8.63173 2.63185 8.33325 3.00004 8.33325H11C11.3682 8.33325 11.6667 8.63173 11.6667 8.99992C11.6667 9.36811 11.3682 9.66659 11 9.66659H3.00004C2.63185 9.66659 2.33337 9.36811 2.33337 8.99992Z" fill="#050507"/>
</svg>
