<svg width="23" height="22" viewBox="0 0 23 22" fill="none" xmlns="http://www.w3.org/2000/svg">
<path fill-rule="evenodd" clip-rule="evenodd" d="M11.3999 0C11.7806 0 12.1282 0.216072 12.2966 0.557376L15.1542 6.34647L21.5446 7.28051C21.9211 7.33555 22.2338 7.59956 22.3512 7.96157C22.4686 8.32358 22.3703 8.72083 22.0977 8.98636L17.4745 13.4894L18.5655 19.851C18.6299 20.2261 18.4756 20.6053 18.1677 20.8291C17.8597 21.0528 17.4514 21.0823 17.1145 20.9051L11.3999 17.8998L5.68538 20.9051C5.34847 21.0823 4.94018 21.0528 4.6322 20.8291C4.32422 20.6053 4.16997 20.2261 4.23432 19.851L5.32541 13.4894L0.702199 8.98636C0.429581 8.72083 0.331308 8.32358 0.448685 7.96157C0.566063 7.59956 0.878743 7.33555 1.2553 7.28051L7.64567 6.34647L10.5032 0.557376C10.6717 0.216072 11.0193 0 11.3999 0ZM11.3999 3.25925L9.20664 7.70262C9.0611 7.99747 8.77991 8.20193 8.45456 8.24949L3.54834 8.9666L7.09766 12.4236C7.33354 12.6534 7.4412 12.9845 7.38554 13.309L6.54811 18.1917L10.9345 15.8849C11.2259 15.7317 11.574 15.7317 11.8654 15.8849L16.2518 18.1917L15.4143 13.309C15.3587 12.9845 15.4663 12.6534 15.7022 12.4236L19.2515 8.9666L14.3453 8.24949C14.0199 8.20193 13.7388 7.99747 13.5932 7.70262L11.3999 3.25925Z" fill="#050507"/>
</svg>
